<svg xmlns="http://www.w3.org/2000/svg" width="512" height="512" viewBox="0 0 155.7 155.7" class="svg replaced-svg"><path d="M42.7 121.5c-12.8-10.3-20.9-26-20.9-43.7 0-26.1 17.9-48 42.1-54.2V9.2C31.9 15.6 7.8 43.9 7.8 77.8c0 21 9.2 39.7 23.8 52.6C42.8 140.9 49.8 126.9 42.7 121.5zM123.6 24.7c-7.2-6.5-17.7 4-10.8 9.2 12.9 10.3 21.1 26.1 21.1 43.8 0 26.1-17.9 48-42.1 54.2v14.4c32-6.5 56.1-34.8 56.1-68.7C147.9 56.6 138.5 37.6 123.6 24.7zM70 35.7l22.8-13.7c3.3-2 3.3-5.2 0-7.2L69.8 0.9c-3.3-2-6-0.5-6 3.4l0.1 28C64 36.2 66.7 37.7 70 35.7zM85.9 120l-23 13.9c-3.3 2-3.3 5.2 0 7.2l22.8 13.7c3.3 2 6 0.5 6-3.4l0.1-28C91.9 119.5 89.2 118 85.9 120z" fill="#499c54"></path></svg>