<svg xmlns="http://www.w3.org/2000/svg" viewBox="0 0 495.4 495.4" width="512" height="512"><style>.a{fill:#ff5816;}</style><path d="M185 381.5c-22.9 0-41.4 18.5-41.4 41.4 0 22.9 18.5 41.4 41.4 41.4 22.8 0 41.4-18.5 41.4-41.4C226.4 400 207.9 381.5 185 381.5z" class="a"/><path d="M365.6 381.5c-22.9 0-41.4 18.5-41.4 41.4 0 22.9 18.5 41.4 41.4 41.4 22.8 0 41.4-18.5 41.4-41.4C407 400 388.5 381.5 365.6 381.5z" class="a"/><path d="M469.6 154.7l-229.2 0c-11.5 0-20.7 9.3-20.7 20.8s9.3 20.8 20.8 20.8l202.8 0 -12.9 43.5 -206.2 0c-10.6 0-19.2 8.6-19.2 19.3 0 10.6 8.6 19.3 19.3 19.3l194.8 0.1 -12.1 40.7H174.5L159 196.2 144.3 76.5c-1.2-9.5-8.1-17.3-17.3-19.6l-98-25C16.6 28.7 3.9 36.2 0.7 48.6s4.3 25.1 16.8 28.3l82.7 21.1 32.2 241.6c0 0 1.1 28.2 26.7 28.2h256.8c21.5 0 25.7-22.4 25.7-22.4l50.9-151.2C492.4 194.2 507.5 154.7 469.6 154.7z" class="a"/></svg>